<svg xmlns="http://www.w3.org/2000/svg" viewBox="0 0 352.21 117.9"><defs><style>.cls-1{fill:#323232;}</style></defs><title>Asset 1</title><g id="Layer_2" data-name="Layer 2"><g id="objects"><path class="cls-1" d="M46.73,3a2,2,0,0,0-.28.56,5.15,5.15,0,0,0-.17,1.58,10.26,10.26,0,0,0,.45,3V45.49a53.68,53.68,0,0,1-1.12,11,26.77,26.77,0,0,1-3.89,9.4,19.48,19.48,0,0,1-7.54,6.53A27.12,27.12,0,0,1,22,74.88H20.49a26.35,26.35,0,0,1-10.41-1.74,16.63,16.63,0,0,1-6.25-4.45,14.53,14.53,0,0,1-3-5.91A25.55,25.55,0,0,1,0,56.64a18.56,18.56,0,0,1,.62-4.79,13.24,13.24,0,0,1,1.8-4.05A10,10,0,0,1,5.29,45a7,7,0,0,1,3.83-1.06c1.35,0,2.21.35,2.59,1.06a4.65,4.65,0,0,1,.57,2.2,7.64,7.64,0,0,1-1,4.11,16.83,16.83,0,0,1-2.2,2.87c-.78.83-1.52,1.65-2.19,2.48a4.63,4.63,0,0,0-1,3q0,5.4,3.6,7.77a16,16,0,0,0,9,2.36,16.81,16.81,0,0,0,8.22-1.91,18.94,18.94,0,0,0,5.8-4.84,20.48,20.48,0,0,0,3.43-6.36,20.87,20.87,0,0,0,1.13-6.48l-1.69.11a13.13,13.13,0,0,1-7-1.85,16.77,16.77,0,0,1-4.95-4.68,20.46,20.46,0,0,1-2.93-6.08,21.58,21.58,0,0,1-1-6.08V27.7a26.93,26.93,0,0,1,.56-5,51,51,0,0,1,1.58-6,45.9,45.9,0,0,1,2.48-6.08,37.17,37.17,0,0,1,3.15-5.35,18.25,18.25,0,0,1,3.6-3.83A6.46,6.46,0,0,1,34.79,0,5.7,5.7,0,0,1,36.6.34L44.48.9A4.25,4.25,0,0,1,46,1.46,1.7,1.7,0,0,1,46.73,3ZM37.05,16.55c.15-.6.3-1.16.45-1.69a6.52,6.52,0,0,0,.22-1.8A4.9,4.9,0,0,0,37,10.42a2.86,2.86,0,0,0-2.64-1.19,4.92,4.92,0,0,0-4.06,2,14.66,14.66,0,0,0-2.42,4.84A32.88,32.88,0,0,0,26.69,22a45.5,45.5,0,0,0-.34,4.95c0,1,.07,2.39.23,4.23a24.63,24.63,0,0,0,1.06,5.46A15.9,15.9,0,0,0,30,41.33a4.86,4.86,0,0,0,4.11,2c.15,0,.58,0,1.29-.11a6.25,6.25,0,0,0,1.64-.34Z"/><path class="cls-1" d="M72.52,45.83a22.15,22.15,0,0,0-2.76,5.24,55.19,55.19,0,0,0-1.86,6c-.53,2.07-1,4.13-1.3,6.2s-.69,4-1.07,5.91q-.23.67-1.74.9a16.78,16.78,0,0,1-2.2.22A20.07,20.07,0,0,1,58.27,70a3.11,3.11,0,0,1-2-1.07,5.89,5.89,0,0,1-1-2.59,41.52,41.52,0,0,1-.57-4.67l1.47-33.45c0-1,.52-1.46,1.57-1.46a10.54,10.54,0,0,1,1.58.17,16.05,16.05,0,0,1,2.14.51,7.18,7.18,0,0,1,1.91.84,1.42,1.42,0,0,1,.79,1.18V52.36a2.8,2.8,0,0,0,.34-.9l1.92-5a57.69,57.69,0,0,1,2.47-5.69,26.31,26.31,0,0,1,2.87-4.61,4.16,4.16,0,0,1,3.1-1.92,4.51,4.51,0,0,1,3.1,1,6.28,6.28,0,0,1,1.63,2.42,11.11,11.11,0,0,1,.68,3.15c.07,1.13.11,2.22.11,3.27,0,.75-.08,2-.23,3.72S80,52.06,80,55.51a22.69,22.69,0,0,0,.56,5.3c.38,1.57,1.13,2.36,2.25,2.36A3,3,0,0,0,85,62.05a13.12,13.12,0,0,0,1.85-2.82,22.82,22.82,0,0,0,1.41-3.6A16.81,16.81,0,0,0,89,52c.08-1.42.64-2.14,1.69-2.14a1.35,1.35,0,0,1,1.35.68,3.42,3.42,0,0,1,.34,1.57v.23a25,25,0,0,1-.84,5.07,21.82,21.82,0,0,1-2.14,5.29,13.58,13.58,0,0,1-3.66,4.17,9,9,0,0,1-5.52,1.68c-3.38,0-5.54-1.21-6.47-3.65s-1.41-6.06-1.41-10.87Z"/><path class="cls-1" d="M116.43,63.4a5,5,0,0,1-1.8,4.16,11.53,11.53,0,0,1-4.11,2.14,22.72,22.72,0,0,1-4.62.85c-1.54.11-2.64.16-3.32.16a28.09,28.09,0,0,1-3.88-.33,26.43,26.43,0,0,1-4.51-1.07,10.53,10.53,0,0,1-3.72-2.09A4.33,4.33,0,0,1,89,63.85a1.81,1.81,0,0,1,1-1.75,3.68,3.68,0,0,1,4.28.39l2.48,1.92a23.07,23.07,0,0,0,2.87,1.91,7.13,7.13,0,0,0,3.6.9,6.72,6.72,0,0,0,2.42-.62,2.19,2.19,0,0,0,1.52-2.19,4.58,4.58,0,0,0-1.29-3,26.75,26.75,0,0,0-3.27-3q-2-1.57-4.22-3.27a37.8,37.8,0,0,1-4.22-3.66,18.83,18.83,0,0,1-3.27-4.33,10.64,10.64,0,0,1-1.29-5.18,9.37,9.37,0,0,1,2.53-6.65A18.9,18.9,0,0,1,98,31a30.56,30.56,0,0,1,7-2.26,32.56,32.56,0,0,1,5.63-.67,9.87,9.87,0,0,1,3.82.79,3,3,0,0,1,1.92,3,9.88,9.88,0,0,1-.28,2,10.93,10.93,0,0,1-.9,2.53,8,8,0,0,1-1.63,2.2,3.63,3.63,0,0,1-2.6,1,1.4,1.4,0,0,1-.9-.4c-.3-.26-.64-.56-1-.9a9,9,0,0,0-1.18-.9,2.61,2.61,0,0,0-1.41-.4q-3.94,0-5.52,2.31a8.54,8.54,0,0,0-1.57,4.9q0,2.25,2.64,4.73c1.76,1.65,3.72,3.3,5.86,5s4.09,3.28,5.85,4.89S116.43,61.89,116.43,63.4Z"/><path class="cls-1" d="M118.91,50q.11-5.74.34-11.71t.45-11c0-.6-.61-1-1.81-1.24s-2.55-.45-4-.67a17.87,17.87,0,0,1-4-1.07A2.52,2.52,0,0,1,108,21.85c0-1,1-1.54,2.93-1.69s4.84-.23,8.67-.23c.3,0,.51-.45.62-1.35s.19-2,.23-3.44.07-2.87.11-4.44.09-3.06.17-4.45a22.55,22.55,0,0,1,.39-3.43c.19-.91.43-1.36.73-1.36a16.22,16.22,0,0,1,2,.23c1,.15,2,.36,3,.62a14.32,14.32,0,0,1,2.76,1c.79.37,1.18.78,1.18,1.23L129.6,19.14c0,.45.4.77,1.19,1a15.44,15.44,0,0,0,3,.34c1.23,0,2.55,0,3.94,0a22.58,22.58,0,0,1,3.94.34,8.79,8.79,0,0,1,3,1.07,2.41,2.41,0,0,1,1.18,2.2,2.09,2.09,0,0,1-.22.73q-.22.51-.57.51a1.2,1.2,0,0,1-.62-.34,3.77,3.77,0,0,0-2.08-.34c-.3,0-1.12,0-2.48.11s-2.77.19-4.28.34-2.87.32-4.11.51-1.93.43-2.08.73a17.16,17.16,0,0,0-.28,2.65c-.11,1.61-.23,3.73-.34,6.36s-.21,5.65-.28,9.06-.11,7-.11,10.76a37.71,37.71,0,0,0,.22,4.16,23.68,23.68,0,0,0,.68,3.66,8.26,8.26,0,0,0,1.18,2.65,2.13,2.13,0,0,0,1.75,1,3.76,3.76,0,0,0,2.7-1.24,12.18,12.18,0,0,0,2.25-3.37,32,32,0,0,0,1.8-4.85q.8-2.7,1.35-5.52a8.06,8.06,0,0,1,.79-2.42,1.5,1.5,0,0,1,1.35-.73A2.15,2.15,0,0,1,144,49a3.05,3.05,0,0,1,.62,2.31,6.07,6.07,0,0,1-.11,1.46q-.34,2-1.3,5.57a41.27,41.27,0,0,1-2.59,7,24.38,24.38,0,0,1-4,6A7.23,7.23,0,0,1,131.07,74a8.39,8.39,0,0,1-5.29-1.74A13.56,13.56,0,0,1,122,67.39a28.27,28.27,0,0,1-2.3-7.32,48.9,48.9,0,0,1-.79-9.06Z"/><path class="cls-1" d="M185.68,58.1a15.39,15.39,0,0,1-1.13,3.72,20.93,20.93,0,0,1-2.31,4.11A14.29,14.29,0,0,1,179,69.25a6.84,6.84,0,0,1-4.11,1.35A8,8,0,0,1,169,68a12.18,12.18,0,0,1-3.1-7.32c-.45,1.2-1,2.59-1.58,4.17A21.88,21.88,0,0,1,162,69.25a15.33,15.33,0,0,1-3.09,3.44,6.41,6.41,0,0,1-4.11,1.4,3.64,3.64,0,0,1-1-.11c-.22-.07-.47-.17-.73-.28a4.78,4.78,0,0,0-.9-.28,6.46,6.46,0,0,0-1.41-.12,6.43,6.43,0,0,1-4.56-1.74,12.65,12.65,0,0,1-3-4.45,25.87,25.87,0,0,1-1.64-5.91,39.69,39.69,0,0,1-.5-6,107,107,0,0,1,.73-12.84,49.31,49.31,0,0,1,2.42-10.75,20.41,20.41,0,0,1,4.39-7.44,8.86,8.86,0,0,1,6.53-2.76,11.56,11.56,0,0,1,3.44.4,15.64,15.64,0,0,1,2.19.9l2.2,1.07a12.23,12.23,0,0,0,3.32.9,8,8,0,0,1,3.32,3.21,12.12,12.12,0,0,1,1.24,4,24.06,24.06,0,0,1,.17,4.44,23.23,23.23,0,0,0,.23,4.57c0,.07.16.18.5.33s.74.32,1.18.51a3.59,3.59,0,0,1,1.19.79,1.74,1.74,0,0,1,.5,1.29v.45a20.5,20.5,0,0,0-1.35,5.18c-.15,1.5-.22,3.31-.22,5.41,0,1,.05,2.19.17,3.43a24,24,0,0,0,.56,3.49A7.59,7.59,0,0,0,175,64.47a2.43,2.43,0,0,0,2,1.07,3.06,3.06,0,0,0,2.42-1.36,13.33,13.33,0,0,0,1.8-3.09,31.14,31.14,0,0,0,1.24-3.55,20.85,20.85,0,0,0,.62-2.7c.15-.9.52-1.35,1.13-1.35a1.37,1.37,0,0,1,1.06.62,3.52,3.52,0,0,1,.51,2.19v.85A5.33,5.33,0,0,1,185.68,58.1ZM164.85,39.86a22.85,22.85,0,0,0-.23-2.93,14.24,14.24,0,0,0-.78-3.15,6.6,6.6,0,0,0-1.69-2.48,4.43,4.43,0,0,0-3-1A6,6,0,0,0,154,33.16a23.49,23.49,0,0,0-3.09,6.76,41,41,0,0,0-1.47,8c-.22,2.74-.34,4.9-.34,6.48,0,1.2.06,2.64.17,4.33a38.34,38.34,0,0,0,.62,4.79,13.64,13.64,0,0,0,1.3,3.83,2.48,2.48,0,0,0,2.19,1.57,5.7,5.7,0,0,0,5-2.53A18.53,18.53,0,0,0,161,60.07a56.72,56.72,0,0,0,1.29-8.1c.27-2.89.51-5.54.74-7.94.15-1.28.48-2.08,1-2.42s.79-.58.79-.73Z"/><path class="cls-1" d="M219.68,73.3a1.59,1.59,0,0,1-1,1.58,4.73,4.73,0,0,1-1.92.45l-2.25-.22c-.37,0-.56.22-.56.67l-.11,1.35q.1,3,.11,7.66v8.9c0,3-.09,5.94-.28,8.84a35.76,35.76,0,0,1-1.3,7.77,14.15,14.15,0,0,1-2.87,5.51,6.49,6.49,0,0,1-5.12,2.09q-2.82,0-5.91-.29a17.5,17.5,0,0,1-5.63-1.4,10.39,10.39,0,0,1-4.17-3.33A9.66,9.66,0,0,1,187,107a35.34,35.34,0,0,1,.85-7.6,41,41,0,0,1,2.44-7.54,44,44,0,0,1,3.79-7,37,37,0,0,1,4.82-5.91c.9-.91,1.91-1.83,3-2.76s2.06-1.71,2.89-2.31v-.12c.15-1.57.26-3.15.34-4.72s.11-3.19.11-4.85c-.38.68-.83,1.6-1.36,2.76a21.93,21.93,0,0,1-1.86,3.32A13.86,13.86,0,0,1,199.61,73a4.53,4.53,0,0,1-3.05,1.19,3.61,3.61,0,0,1-1.59-.34,4.31,4.31,0,0,0-1.92-.34,10.23,10.23,0,0,1-5.26-1.69,9.74,9.74,0,0,1-3.28-4,21.54,21.54,0,0,1-1.65-6.14,63.43,63.43,0,0,1-.45-7.94A100.53,100.53,0,0,1,183,42.79a48.75,48.75,0,0,1,2.21-10.3,21.86,21.86,0,0,1,4.24-7.66,8.6,8.6,0,0,1,6.72-3,3.12,3.12,0,0,1,1.19.33l1.58.74,1.7.78a6.68,6.68,0,0,0,1.3.51,30.92,30.92,0,0,1,4.18,1.13,11.46,11.46,0,0,1,3.28,1.74,7.39,7.39,0,0,1,2.14,2.82,10.41,10.41,0,0,1,.79,4.33,17.26,17.26,0,0,1-.28,3.27,20.85,20.85,0,0,0-.28,3.71,1.27,1.27,0,0,0,.64,1.24,7,7,0,0,0,1.47.56c.55.16,1,.33,1.49.51a1.13,1.13,0,0,1,.68,1.18,3.35,3.35,0,0,1-.5,1.07c-.34.57-.55.92-.63,1.07a13.68,13.68,0,0,0-.56,2.87c-.15,1.32-.26,2.75-.34,4.28s-.13,3.12-.16,4.73-.06,3.06-.06,4.34v3.88c0,1.62,0,3,.11,4h.45a1.74,1.74,0,0,0,.45-.06,1.31,1.31,0,0,1,.34,0,8.62,8.62,0,0,1,2.76.62C219.1,71.86,219.68,72.48,219.68,73.3Zm-14.3-34.79a20.07,20.07,0,0,0-.22-2.81,13.16,13.16,0,0,0-.8-3,6.12,6.12,0,0,0-1.64-2.36,3.87,3.87,0,0,0-2.67-1,5.88,5.88,0,0,0-4,1.69,14.3,14.3,0,0,0-3.29,4.78,33.2,33.2,0,0,0-2.27,7.55,53.73,53.73,0,0,0-.85,10.08c0,1.57,0,3.21.17,4.89a37.32,37.32,0,0,0,.56,4.57,9.88,9.88,0,0,0,1.24,3.37,2.51,2.51,0,0,0,2.2,1.35,5.43,5.43,0,0,0,4.16-2,16.78,16.78,0,0,0,3-5,35.92,35.92,0,0,0,1.8-6.2,41.13,41.13,0,0,0,.73-5.57,32.82,32.82,0,0,1,.36-4.45,4.74,4.74,0,0,1,.48-1.52,4.33,4.33,0,0,0,.89-2.14A15.64,15.64,0,0,0,205.38,38.51Zm-.45,39.08A20.22,20.22,0,0,0,200,82.65a40.56,40.56,0,0,0-4,7.09,45.79,45.79,0,0,0-2.67,7.77,29.9,29.9,0,0,0-1,7.1,15.25,15.25,0,0,0,.23,2.48,10.9,10.9,0,0,0,.74,2.53,5.16,5.16,0,0,0,1.47,2,3.61,3.61,0,0,0,2.33.79,4.76,4.76,0,0,0,3.92-2,14.86,14.86,0,0,0,2.39-4.68,27.39,27.39,0,0,0,1.14-5.51c.18-1.88.28-3.38.28-4.51v-1c0-.45,0-1.32.06-2.59s.05-3.06.05-5.35Z"/><path class="cls-1" d="M253.35,54.5A35.19,35.19,0,0,1,251,64.58a20.78,20.78,0,0,1-3.49,5.91A7,7,0,0,1,242,73.08a7.12,7.12,0,0,1-5.74-2.53A17.5,17.5,0,0,1,233,64.47,34.17,34.17,0,0,1,231.51,57c-.23-2.59-.34-4.74-.34-6.47a51.43,51.43,0,0,1,.34-5.91q.33-3,.45-5.92a1.07,1.07,0,0,0-.9-1.12,7.07,7.07,0,0,0-1.69-.22,2.72,2.72,0,0,0-1.69.33,1.62,1.62,0,0,0-.45.79l-.45,3.6c-.3,2.41-.62,4.71-1,6.93s-.71,4.16-1.13,5.85A16.77,16.77,0,0,1,223.23,59c-.56,1-1.22,1.52-2,1.52h-.11a1.6,1.6,0,0,1-.85-.23c-.26-.15-.39-.52-.39-1.12a6.23,6.23,0,0,1,.22-1.36,49.67,49.67,0,0,0,1.13-6.53c.15-1.72.26-3.26.34-4.61v-.79c0-.37,0-.83.05-1.35s.06-1.16.06-1.92V37.05a20.88,20.88,0,0,0-.23-2.93l-.33-6.64a1.68,1.68,0,0,1,.56-1.24,5.38,5.38,0,0,1,1.46-1,8.24,8.24,0,0,1,1.92-.67,8.37,8.37,0,0,1,1.8-.23c1.27,0,1.91.83,1.91,2.48v.56l-.11,2.48v.68c0,.52.11.84.34.95a6.13,6.13,0,0,0,1.35.4h.34c.6.07,1.57.15,2.93.22a39.8,39.8,0,0,1,4,.45,13.73,13.73,0,0,1,3.55,1.07,2.29,2.29,0,0,1,1.52,2.09,5.48,5.48,0,0,1-.23,1.29,15.91,15.91,0,0,1-.56,1.69c-.23.56-.42,1.07-.56,1.52a3.33,3.33,0,0,0-.23.9,64,64,0,0,0-2,16.22c0,.44,0,1.27.11,2.47a36.19,36.19,0,0,0,.45,3.72,14,14,0,0,0,1,3.38c.45,1,1,1.46,1.69,1.46,1.12,0,2.14-.69,3-2.08a24,24,0,0,0,2.36-4.84,43.29,43.29,0,0,0,1.64-5.58q.61-2.81.84-4.17c.15-.82.39-1.33.73-1.51a2,2,0,0,1,1-.29c1.05,0,1.58.68,1.58,2,0,.15,0,.55-.06,1.18A9.26,9.26,0,0,1,253.35,54.5Z"/><path class="cls-1" d="M294.68,58.1a15.85,15.85,0,0,1-1.13,3.72,20.93,20.93,0,0,1-2.31,4.11A14.53,14.53,0,0,1,288,69.25a6.8,6.8,0,0,1-4.11,1.35A8,8,0,0,1,278,68a12.12,12.12,0,0,1-3.09-7.32c-.45,1.2-1,2.59-1.58,4.17A21.88,21.88,0,0,1,271,69.25a15.37,15.37,0,0,1-3.1,3.44,6.38,6.38,0,0,1-4.11,1.4,3.56,3.56,0,0,1-1-.11,7.65,7.65,0,0,1-.73-.28,5.29,5.29,0,0,0-.9-.28,6.46,6.46,0,0,0-1.41-.12,6.43,6.43,0,0,1-4.56-1.74,12.67,12.67,0,0,1-3-4.45,25.87,25.87,0,0,1-1.63-5.91,38.51,38.51,0,0,1-.51-6,107,107,0,0,1,.74-12.84,48.17,48.17,0,0,1,2.42-10.75,20.27,20.27,0,0,1,4.39-7.44,8.84,8.84,0,0,1,6.53-2.76,11.44,11.44,0,0,1,3.43.4,16.29,16.29,0,0,1,2.2.9c.67.34,1.41.69,2.2,1.07a12,12,0,0,0,3.32.9,8.11,8.11,0,0,1,3.32,3.21,12.12,12.12,0,0,1,1.24,4,26,26,0,0,1,.17,4.44,23.23,23.23,0,0,0,.22,4.57q0,.1.51.33c.34.16.73.32,1.18.51a3.55,3.55,0,0,1,1.18.79,1.75,1.75,0,0,1,.51,1.29v.45a20.5,20.5,0,0,0-1.35,5.18c-.15,1.5-.23,3.31-.23,5.41,0,1,.06,2.19.17,3.43a22.71,22.71,0,0,0,.57,3.49A7.42,7.42,0,0,0,284,64.47a2.41,2.41,0,0,0,2,1.07,3,3,0,0,0,2.42-1.36,13,13,0,0,0,1.81-3.09,31.07,31.07,0,0,0,1.23-3.55,21.29,21.29,0,0,0,.63-2.7c.14-.9.52-1.35,1.12-1.35a1.39,1.39,0,0,1,1.07.62,3.52,3.52,0,0,1,.51,2.19v.85A5.33,5.33,0,0,1,294.68,58.1ZM273.84,39.86a22.64,22.64,0,0,0-.22-2.93,14.25,14.25,0,0,0-.79-3.15,6.49,6.49,0,0,0-1.69-2.48,4.41,4.41,0,0,0-3-1A6,6,0,0,0,263,33.16a23.24,23.24,0,0,0-3.1,6.76,40.21,40.21,0,0,0-1.46,8q-.35,4.11-.34,6.48c0,1.2.06,2.64.17,4.33a36.56,36.56,0,0,0,.62,4.79,14,14,0,0,0,1.29,3.83,2.51,2.51,0,0,0,2.2,1.57,5.73,5.73,0,0,0,5-2.53A18.93,18.93,0,0,0,270,60.07a58.17,58.17,0,0,0,1.29-8.1c.26-2.89.51-5.54.73-7.94a3.22,3.22,0,0,1,1-2.42c.52-.34.78-.58.78-.73Z"/><path class="cls-1" d="M329.13,42.68a70.33,70.33,0,0,0-2.93,6.42q-1.35,3.38-2,5.29c-.07.37-.28,1.16-.61,2.36l-1.13,4c-.41,1.46-.77,2.91-1.07,4.34a17.58,17.58,0,0,0-.45,3.48c0,.38-.34.72-1,1a6.44,6.44,0,0,1-2.59.45,9.49,9.49,0,0,1-3.94-.68,4.46,4.46,0,0,1-2.2-2.19,11,11,0,0,1-.9-4q-.16-2.47-.17-6V48.76c0-.6,0-1.2-.05-1.8s-.17-1-.4-1.13c-.38.15-.84,1.13-1.41,2.93a60.65,60.65,0,0,0-1.58,6.58c-.48,2.59-.91,5.32-1.29,8.17a58.38,58.38,0,0,0-.56,7.66,1.37,1.37,0,0,1-1.3,1.46,16.77,16.77,0,0,1-2.87.23,11.73,11.73,0,0,1-1.52-.17c-.71-.12-1.43-.25-2.14-.4a10.33,10.33,0,0,1-2-.62,1.93,1.93,0,0,1-1.12-1,19,19,0,0,1-.85-4.84q-.29-3.38-.28-10.47c0-2.78.06-6,.17-9.68s.24-8,.39-12.95c0-.68,0-1.56-.11-2.65s-.11-1.7-.11-1.86a1,1,0,0,1,.73-1.07A5.57,5.57,0,0,1,294.9,27a12.66,12.66,0,0,1,1.86.17c.71.12,1.42.25,2.14.4s1.36.32,2,.5a5.57,5.57,0,0,1,1.24.51V55.74l1.29-5.24q.74-3,1.69-5.91a53,53,0,0,1,2.08-5.4,11,11,0,0,1,2.37-3.61,3.93,3.93,0,0,1,1.69-.5,14.34,14.34,0,0,1,2-.17,6.84,6.84,0,0,1,1.41.17,8.31,8.31,0,0,1,1.63.5,5.81,5.81,0,0,1,1.41.85,1.88,1.88,0,0,1,.73,1.18V56.87c0,.45.08.67.23.67s.57-1,1.28-3l2.52-7.21c1-2.77,2-5.63,3.14-8.56a70.33,70.33,0,0,1,3-7c.15-.3.65-.46,1.51-.5s1.62-.06,2.3-.06a6.45,6.45,0,0,1,2.12.51,12.38,12.38,0,0,1,4.88,3.43,3.61,3.61,0,0,1,1,2.37,4.53,4.53,0,0,1-.68,1.29,6.78,6.78,0,0,0-.9,2.2,40.71,40.71,0,0,0-1.06,6.19c-.2,2-.29,4.62-.29,7.77,0,1.35.06,2.7.17,4a25.47,25.47,0,0,0,.56,3.66,8.26,8.26,0,0,0,1.08,2.65,2,2,0,0,0,1.8,1,4.15,4.15,0,0,0,2.81-1.07A9,9,0,0,0,346,62.38a23.79,23.79,0,0,0,1.58-4.22,50.93,50.93,0,0,0,1.12-5c.38-1.8,1-2.7,2-2.7a1.3,1.3,0,0,1,1.18.45,4.49,4.49,0,0,1,.28,2,4.72,4.72,0,0,1-.11,1.24,27.24,27.24,0,0,1-1,4.56,35,35,0,0,1-2.36,6.2,21,21,0,0,1-3.77,5.4,7,7,0,0,1-5.18,2.31,9.43,9.43,0,0,1-5.7-1.63,10.71,10.71,0,0,1-3.45-4.4A23.59,23.59,0,0,1,329,60.24a55.29,55.29,0,0,1-.5-7.54v-.79Z"/></g></g></svg>